<svg xmlns="http://www.w3.org/2000/svg" viewBox="0 0 54.91 51.37"><defs><style>.cls-1{fill:#9e9e9e;}</style></defs><g id="Layer_2" data-name="Layer 2"><g id="_1" data-name="1"><path class="cls-1" d="M3,23.13A.81.81,0,0,0,3,22l-.38-.37a.81.81,0,0,0-1.14,1.14l.37.37a.81.81,0,0,0,1.15,0Z"/><path class="cls-1" d="M8.5,28.66a.81.81,0,0,0,0-1.15l-.37-.37A.81.81,0,1,0,7,28.28l.38.38a.81.81,0,0,0,1.14,0Z"/><path class="cls-1" d="M1.91,25.71a.8.8,0,0,0,.24-.57.81.81,0,0,0-.81-.81H.81A.81.81,0,0,0,.81,26h.53a.8.8,0,0,0,.57-.24Z"/><path class="cls-1" d="M8.62,24.32a.81.81,0,1,0,0,1.62h.53a.82.82,0,0,0,.81-.81.81.81,0,0,0-.81-.81Z"/><path class="cls-1" d="M3,27.14a.81.81,0,0,0-1.15,0l-.37.37A.81.81,0,0,0,2.6,28.66L3,28.28a.81.81,0,0,0,0-1.14Z"/><path class="cls-1" d="M8.5,22.76a.81.81,0,0,0-1.14-1.15L7,22a.81.81,0,0,0,1.14,1.14l.37-.37Z"/><path class="cls-1" d="M5.79,28.78a.81.81,0,1,0-1.62,0v.53a.81.81,0,0,0,.81.81.82.82,0,0,0,.81-.81Z"/><path class="cls-1" d="M5.79,21a.81.81,0,0,0-1.62,0v.53a.81.81,0,0,0,1.39.57.8.8,0,0,0,.23-.57Z"/><path class="cls-1" d="M12.8,18.31a1.45,1.45,0,0,0,1.44.37l3.4-1,3.4,1a1.46,1.46,0,0,0,1.81-1.81l-1-3.4,1-3.4A1.45,1.45,0,0,0,21,8.26l-3.4,1-3.4-1a1.45,1.45,0,0,0-1.81,1.81l1,3.4-1,3.4a1.45,1.45,0,0,0,.37,1.44Zm1.26-1.26L15,13.88a1.43,1.43,0,0,0,0-.82l-.93-3.17,3.17.93a1.43,1.43,0,0,0,.82,0l3.17-.93-.93,3.17a1.43,1.43,0,0,0,0,.82l.93,3.17-3.17-.93a1.43,1.43,0,0,0-.82,0Z"/><path class="cls-1" d="M34,10.12a1.48,1.48,0,0,0,1.44.37l3.4-1,3.41,1A1.46,1.46,0,0,0,44,8.67l-1-3.4,1-3.4A1.46,1.46,0,0,0,42.22.06L40.29.62a.81.81,0,0,0,.45,1.56l1.65-.49-.92,3.17a1.43,1.43,0,0,0,0,.82l.92,3.17-3.17-.93a1.43,1.43,0,0,0-.82,0l-3.16.93.92-3.17a1.43,1.43,0,0,0,0-.82l-.92-3.17,1.62.48A.81.81,0,1,0,37.32.62L35.41.06A1.46,1.46,0,0,0,33.6,1.87l1,3.4-1,3.4A1.46,1.46,0,0,0,34,10.12Z"/><path class="cls-1" d="M7.31,41.13a1.46,1.46,0,0,0,1.81,1.81l3.41-1,3.4,1a1.46,1.46,0,0,0,1.81-1.81l-1-3.4,1-3.41a1.46,1.46,0,0,0-1.81-1.81l-3.4,1-3.4-1a1.47,1.47,0,0,0-1.82,1.82l.34,1.14A.81.81,0,1,0,9.2,35L9,34.15l3.17.92a1.43,1.43,0,0,0,.82,0l3.16-.92-.92,3.17a1.43,1.43,0,0,0,0,.82l.92,3.16-3.16-.92a1.47,1.47,0,0,0-.83,0L9,41.3l.71-2.42a.81.81,0,0,0-.55-1,.82.82,0,0,0-1,.54l-.79,2.71Z"/><path class="cls-1" d="M20,38.86a2.78,2.78,0,0,0,2.22,3,91.44,91.44,0,0,1,25.11,9.35.88.88,0,0,0,1.06-.15l.09-.11a.89.89,0,0,0-.12-1.18c-2-1.85-9.82-8.27-24.68-13.3A2.79,2.79,0,0,0,20,38.86Zm2.54,1.47a1.19,1.19,0,0,1-.6-2,1.56,1.56,0,0,1,.2-.16,1.19,1.19,0,0,1,1-.12,83.89,83.89,0,0,1,17.54,8.13,92.16,92.16,0,0,0-18.16-5.85Z"/><path class="cls-1" d="M53.34,44.84a.89.89,0,0,0,1.21.14l.1-.09a.88.88,0,0,0,.12-1.1c-3.16-5-10.7-18-12.51-29.29a2.77,2.77,0,0,0-5-1.16,2.79,2.79,0,0,0-.45,2.17c1.1,5.33,3.85,11.42,8.17,18.12a108,108,0,0,0,8.35,11.21ZM43.71,25.55a93.46,93.46,0,0,0,4.4,9.84c-.58-.84-1.17-1.72-1.76-2.64-4.21-6.53-6.88-12.44-8-17.57a1.15,1.15,0,0,1,.19-.9.64.64,0,0,1,.13-.15,1.13,1.13,0,0,1,.66-.33,1.14,1.14,0,0,1,1.28,1,55.81,55.81,0,0,0,3.05,10.79Z"/><path class="cls-1" d="M24.91,20.74A2.78,2.78,0,0,0,25,24.79l2.39,2.13a.82.82,0,0,0,1.14-.07.81.81,0,0,0-.06-1.14L26.1,23.58a1.17,1.17,0,0,1,.81-2,1.18,1.18,0,0,1,.84.38L41.93,37.69,31.09,28A.81.81,0,1,0,30,29.23L50.69,47.66a.89.89,0,0,0,1.22,0h0a.89.89,0,0,0,0-1.23L29,20.84a2.78,2.78,0,0,0-4-.1Z"/></g></g></svg>