<svg xmlns="http://www.w3.org/2000/svg" viewBox="0 0 54.91 51.37"><defs><style>.cls-1{fill:#9e9e9e;}</style></defs><g id="Layer_2" data-name="Layer 2"><g id="_1" data-name="1"><path class="cls-1" d="M51.93,23.13a.81.81,0,0,0,1.15,0l.37-.37a.81.81,0,0,0-1.14-1.14l-.38.37a.81.81,0,0,0,0,1.14Z"/><path class="cls-1" d="M46.41,28.66a.81.81,0,0,0,1.14,0l.38-.38a.81.81,0,1,0-1.15-1.14l-.37.37a.81.81,0,0,0,0,1.15Z"/><path class="cls-1" d="M53,25.71a.8.8,0,0,0,.57.24h.53a.81.81,0,1,0,0-1.62h-.53a.81.81,0,0,0-.81.81.8.8,0,0,0,.24.57Z"/><path class="cls-1" d="M46.29,24.32h-.53a.81.81,0,0,0-.81.81.77.77,0,0,0,.24.57.78.78,0,0,0,.57.24h.53a.81.81,0,1,0,0-1.62Z"/><path class="cls-1" d="M51.94,27.14a.8.8,0,0,0,0,1.14l.37.38a.81.81,0,1,0,1.14-1.15l-.37-.37a.8.8,0,0,0-1.14,0Z"/><path class="cls-1" d="M46.41,22.76l.37.37A.81.81,0,1,0,47.93,22l-.38-.38a.81.81,0,0,0-1.14,1.15Z"/><path class="cls-1" d="M49.12,29.31a.85.85,0,0,0,.24.57.8.8,0,0,0,.57.24.81.81,0,0,0,.81-.81v-.53a.81.81,0,0,0-1.62,0Z"/><path class="cls-1" d="M49.12,21.49a.77.77,0,0,0,.24.57.78.78,0,0,0,.57.24.81.81,0,0,0,.81-.81V21a.81.81,0,0,0-1.62,0Z"/><path class="cls-1" d="M42.12,18.31a1.44,1.44,0,0,0,.36-1.44l-1-3.4,1-3.4a1.47,1.47,0,0,0-.36-1.45,1.49,1.49,0,0,0-1.45-.36l-3.4,1-3.4-1a1.45,1.45,0,0,0-1.81,1.81l1,3.4-1,3.4a1.46,1.46,0,0,0,1.81,1.81l3.4-1,3.4,1a1.47,1.47,0,0,0,1.45-.37Zm-4.44-2.19a1.43,1.43,0,0,0-.82,0l-3.17.93.93-3.17a1.43,1.43,0,0,0,0-.82l-.93-3.17,3.17.93a1.43,1.43,0,0,0,.82,0l3.17-.93-.93,3.17a1.43,1.43,0,0,0,0,.82l.93,3.17Z"/><path class="cls-1" d="M20.94,10.12a1.46,1.46,0,0,0,.37-1.45l-1-3.4,1-3.4A1.46,1.46,0,0,0,19.5.06L17.59.62a.81.81,0,1,0,.46,1.55l1.63-.48-.93,3.17a1.43,1.43,0,0,0,0,.82l.93,3.17-3.17-.93a1.43,1.43,0,0,0-.82,0l-3.17.93.93-3.17a1.63,1.63,0,0,0,0-.82l-.93-3.17,1.65.49A.81.81,0,0,0,14.62.62L12.7.06a1.46,1.46,0,0,0-1.82,1.81l1,3.4-1,3.4a1.47,1.47,0,0,0,1.82,1.82l3.4-1,3.4,1a1.48,1.48,0,0,0,1.44-.37Z"/><path class="cls-1" d="M47.6,41.13l-.79-2.71a.81.81,0,0,0-1.56.46L46,41.3l-3.17-.92a1.43,1.43,0,0,0-.82,0l-3.17.92.92-3.16a1.43,1.43,0,0,0,0-.82l-.92-3.17,3.17.92a1.43,1.43,0,0,0,.82,0L46,34.15l-.25.86a.82.82,0,0,0,.55,1,.81.81,0,0,0,1-.55l.34-1.14a1.46,1.46,0,0,0-1.81-1.82l-3.4,1-3.41-1a1.46,1.46,0,0,0-1.81,1.81l1,3.41-1,3.4A1.46,1.46,0,0,0,39,42.94l3.41-1,3.4,1a1.46,1.46,0,0,0,1.81-1.81Z"/><path class="cls-1" d="M34.88,38.86a2.81,2.81,0,0,0-1.28-2,2.77,2.77,0,0,0-2.41-.29C16.33,41.55,8.55,48,6.51,49.82A.9.9,0,0,0,6.39,51l.09.11a.88.88,0,0,0,1.06.15,91.44,91.44,0,0,1,25.11-9.35,2.8,2.8,0,0,0,2.23-3Zm-2.55,1.47a92.37,92.37,0,0,0-18.16,5.85,83.89,83.89,0,0,1,17.54-8.13,1.19,1.19,0,0,1,1,.12,1.56,1.56,0,0,1,.2.16,1.19,1.19,0,0,1-.6,2Z"/><path class="cls-1" d="M1.57,44.84A107.58,107.58,0,0,0,9.93,33.63c4.31-6.7,7.06-12.79,8.17-18.12a2.78,2.78,0,0,0-2.35-3.31,2.75,2.75,0,0,0-3.1,2.3C10.84,25.79,3.3,38.74.14,43.79a.88.88,0,0,0,.12,1.1l.1.09a.89.89,0,0,0,1.21-.14Zm9.64-19.29a56.32,56.32,0,0,0,3-10.79,1.14,1.14,0,0,1,1.28-1,1.13,1.13,0,0,1,.66.33.64.64,0,0,1,.13.15,1.12,1.12,0,0,1,.19.9c-1.06,5.13-3.74,11-7.94,17.57q-.9,1.38-1.77,2.64a95.71,95.71,0,0,0,4.41-9.84Z"/><path class="cls-1" d="M30,20.74a2.79,2.79,0,0,0-4.05.1L3,46.4a.9.9,0,0,0,0,1.23H3a.89.89,0,0,0,1.22,0L24.9,29.23A.8.8,0,1,0,23.83,28L13,37.69,27.16,21.92a1.18,1.18,0,0,1,.84-.38,1.15,1.15,0,0,1,.86.34,1.16,1.16,0,0,1,.34.86,1.12,1.12,0,0,1-.39.84l-2.38,2.13a.8.8,0,0,0-.07,1.14.82.82,0,0,0,1.14.07l2.39-2.13A2.79,2.79,0,0,0,30,20.74Z"/></g></g></svg>